<svg width="28" height="28" viewBox="0 0 28 28" fill="none" xmlns="http://www.w3.org/2000/svg">
<path d="M27.2948 12.0925C27.3564 12.0009 27.3871 11.8787 27.3871 11.787C26.2798 5.43248 20.6816 0.605469 13.9761 0.605469C6.44006 0.605469 0.318966 6.71561 0.349725 14.2311C0.411243 21.5327 6.59386 27.6428 13.9146 27.6428C20.1587 27.6734 25.4185 23.5185 27.0488 17.8666C27.1103 17.6833 26.9872 17.4694 26.8027 17.3778L26.249 17.1639C24.0651 16.4002 21.6351 16.6751 19.6973 17.9277C18.8053 18.5082 18.1593 18.9664 18.1593 18.9664C17.052 19.6996 15.6986 20.1579 14.2837 20.1579C10.4388 20.1579 7.76271 17.0417 7.33208 13.2534L7.02449 11.176C6.93221 10.5344 6.50158 10.0151 5.88639 9.77067L5.11741 9.46516C4.99437 9.40406 4.93286 9.25131 5.02514 9.12911C8.31638 4.76037 12.3458 5.70743 12.3458 5.70743C13.0533 5.76853 13.6685 6.04349 14.1606 6.37955C14.8681 6.86836 15.4218 7.57103 15.7601 8.36534C16.9905 11.176 19.8203 13.1618 23.1116 13.1618C23.1116 13.1618 26.249 13.284 27.2948 12.0925Z" fill="#833098"/>
</svg>
