<svg width="103" height="24" viewBox="0 0 103 24" fill="none" xmlns="http://www.w3.org/2000/svg">
<path d="M21.8035 10.5264C21.8332 10.4912 21.8547 10.4499 21.8665 10.4054C21.8784 10.3609 21.8803 10.3143 21.8721 10.269C21.3906 7.54889 19.9051 5.10877 17.7098 3.43196C15.5145 1.75516 12.7695 0.963965 10.0186 1.21509C7.26757 1.46621 4.71122 2.74134 2.85581 4.78791C1.00041 6.83448 -0.0187268 9.50324 0.000260616 12.2656C0.0420008 18.2066 5.04784 23.1896 10.9888 23.2055C13.3866 23.2117 15.721 22.4361 17.6383 20.9962C19.5556 19.5563 20.9513 17.5306 21.6137 15.2262C21.6359 15.1484 21.6277 15.0651 21.5908 14.9932C21.5539 14.9212 21.491 14.866 21.4149 14.8386L20.9608 14.6696C20.0887 14.359 19.1568 14.2537 18.2375 14.3618C17.3181 14.4698 16.436 14.7884 15.6598 15.2928C14.9482 15.7559 14.4175 16.1504 14.4175 16.1504C13.4888 16.7782 12.3931 17.113 11.2721 17.1114C8.16443 17.1114 5.98401 14.5732 5.64512 11.4845L5.40163 9.79498C5.36497 9.54145 5.26139 9.30228 5.10156 9.10209C4.94172 8.90191 4.73142 8.74795 4.49229 8.65607L3.86122 8.41358C3.83528 8.40365 3.81201 8.38782 3.79324 8.36733C3.77448 8.34685 3.76075 8.32228 3.75313 8.29557C3.74551 8.26885 3.74422 8.24074 3.74935 8.21344C3.75449 8.18614 3.76591 8.16041 3.78271 8.13829C6.44514 4.58243 9.69689 5.35562 9.69689 5.35562C10.2219 5.40583 10.725 5.59142 11.1568 5.89426C11.7356 6.30044 12.1882 6.86153 12.4627 7.51318C12.9681 8.67245 13.8009 9.65901 14.8588 10.3519C15.9168 11.0448 17.1539 11.4139 18.4186 11.4139C18.4186 11.4139 20.9528 11.5123 21.8035 10.5264Z" fill="white"/>
<path d="M6.76212 7.87397C7.11669 7.87397 7.40412 7.58654 7.40412 7.23197C7.40412 6.8774 7.11669 6.58997 6.76212 6.58997C6.40755 6.58997 6.12012 6.8774 6.12012 7.23197C6.12012 7.58654 6.40755 7.87397 6.76212 7.87397Z" fill="white"/>
<path d="M6.89735 11.2371C7.05934 12.2369 7.84644 15.4111 11.3695 15.9955C11.3803 15.9968 11.3912 15.9943 11.4004 15.9884C11.4095 15.9826 11.4163 15.9737 11.4196 15.9633C11.4229 15.9529 11.4225 15.9418 11.4184 15.9317C11.4144 15.9216 11.4069 15.9132 11.3973 15.9081C10.5814 15.5324 8.44372 14.2981 6.98381 11.2113C6.97907 11.2015 6.97102 11.1938 6.96109 11.1894C6.95116 11.185 6.93999 11.1844 6.9296 11.1875C6.9192 11.1906 6.91025 11.1973 6.90434 11.2064C6.89844 11.2155 6.89596 11.2264 6.89735 11.2371Z" fill="white"/>
<path d="M38.915 15.1387C38.915 19.6228 35.5062 22.97 31.0529 22.97C26.5996 22.97 23.2227 19.6228 23.2227 15.1387C23.2227 10.594 26.6016 7.21606 31.0529 7.21606C35.5042 7.21606 38.915 10.594 38.915 15.1387ZM28.0436 15.1387C28.0436 16.9197 29.3356 18.2404 31.0529 18.2404C32.804 18.2404 34.093 16.9197 34.093 15.1387C34.093 13.2962 32.801 11.9456 31.0529 11.9456C29.3336 11.9456 28.0436 13.2962 28.0436 15.1387Z" fill="white"/>
<path d="M55.1281 15.6306C55.1281 19.9298 52.1189 22.9699 47.8813 22.9699C43.6079 22.9699 40.5728 19.9298 40.5728 15.6306V7.52307H45.4852V15.6306C45.4852 17.2267 46.4064 18.2403 47.8813 18.2403C49.2935 18.2403 50.2455 17.2267 50.2455 15.6306V7.52307H55.1281V15.6306Z" fill="white"/>
<path d="M67.2575 7.40075V11.8838C66.705 11.7914 66.1822 11.7 65.6913 11.7C63.6341 11.7 61.9754 12.7743 61.9754 15.6613V22.6588H57.062V7.52298H61.9754V9.12004C62.8699 7.92747 64.1558 7.2467 65.8135 7.2467C66.2985 7.25545 66.7817 7.307 67.2575 7.40075Z" fill="white"/>
<path d="M74.5363 2.91684C74.5363 4.5139 73.2146 5.8635 71.6175 5.8635C70.8398 5.85194 70.0972 5.53772 69.5474 4.98754C68.9976 4.43737 68.6839 3.69456 68.6729 2.91684C68.6729 1.35159 70.0205 0 71.6175 0C73.2146 0 74.5363 1.35159 74.5363 2.91684ZM74.0394 7.52316V22.6589H69.13V7.52316H74.0394Z" fill="white"/>
<path d="M91.0078 16.3671H80.2011C80.5698 17.9333 81.8588 18.9162 83.5483 18.9162C85.0221 18.9162 85.8509 18.302 86.0666 17.4732H90.8876C90.4264 20.8204 87.5712 22.97 83.7013 22.97C79.2182 22.97 75.718 19.4996 75.718 15.0473C75.718 10.6248 79.1566 7.21606 83.6099 7.21606C87.7243 7.21606 91.133 10.4718 91.133 14.617C91.133 15.0165 91.0694 15.8145 91.0078 16.3671ZM85.9722 13.2654C85.8489 12.038 84.6802 11.2082 83.3624 11.2082C82.0108 11.2082 80.9355 11.8224 80.4138 13.2654H85.9722Z" fill="white"/>
<path d="M103 7.40075V11.8838C102.447 11.7914 101.926 11.7 101.434 11.7C99.3765 11.7 97.7178 12.7743 97.7178 15.6613V22.6588H92.8054V7.52298H97.7178V9.12004C98.6123 7.92747 99.8983 7.2467 101.557 7.2467C102.042 7.25545 102.524 7.307 103 7.40075Z" fill="white"/>
</svg>
