<svg width="721" height="722" viewBox="0 0 721 722" fill="none" xmlns="http://www.w3.org/2000/svg">
<path d="M718.539 306.647C720.18 304.203 721 300.944 721 298.5C691.471 129.046 542.186 0.325195 363.373 0.325195C162.412 0.325195 -0.817169 163.262 0.0030779 363.675C1.64357 558.384 166.513 721.321 361.732 721.321C528.242 722.135 668.504 611.338 711.977 460.622C713.618 455.734 710.337 450.031 705.415 447.587L690.651 441.884C632.414 421.517 567.614 428.849 515.938 462.251C492.151 477.73 474.926 489.951 474.926 489.951C445.397 509.503 409.306 521.723 371.575 521.723C269.044 521.723 197.683 438.626 186.199 337.605L177.997 282.206C175.536 265.098 164.052 251.248 147.648 244.73L127.141 236.584C123.86 234.954 122.22 230.881 124.681 227.622C212.447 111.122 319.899 136.378 319.899 136.378C338.765 138.007 355.17 145.339 368.294 154.301C387.16 167.336 401.924 186.073 410.947 207.255C443.757 282.206 519.219 335.161 606.986 335.161C606.986 335.161 690.651 338.419 718.539 306.647Z" fill="url(#paint0_linear_2363_585)"/>
<path d="M223.11 219.475C234.889 219.475 244.437 209.992 244.437 198.294C244.437 186.595 234.889 177.112 223.11 177.112C211.332 177.112 201.784 186.595 201.784 198.294C201.784 209.992 211.332 219.475 223.11 219.475Z" fill="url(#paint1_linear_2363_585)"/>
<defs>
<linearGradient id="paint0_linear_2363_585" x1="257.757" y1="669.148" x2="-113.829" y2="-75.7044" gradientUnits="userSpaceOnUse">
<stop stop-color="#833098"/>
<stop offset="1" stop-color="#E04268"/>
</linearGradient>
<linearGradient id="paint1_linear_2363_585" x1="257.757" y1="669.148" x2="-113.829" y2="-75.7044" gradientUnits="userSpaceOnUse">
<stop stop-color="#833098"/>
<stop offset="1" stop-color="#E04268"/>
</linearGradient>
</defs>
</svg>
