<svg width="100" height="101" viewBox="0 0 100 101" fill="none" xmlns="http://www.w3.org/2000/svg">
<path fill-rule="evenodd" clip-rule="evenodd" d="M99.6637 42.7735C99.7993 42.6125 99.8976 42.4235 99.9518 42.2201C100.006 42.0168 100.015 41.8039 99.9772 41.5969C97.7762 29.1623 90.9861 18.0078 80.9514 10.3427C70.9167 2.67751 58.3694 -0.939258 45.7947 0.208702C33.2201 1.35666 21.535 7.18562 13.0539 16.541C4.57286 25.8965 -0.0856003 38.0962 0.00119128 50.7237C0.191985 77.8818 23.0737 100.66 50.2299 100.733C61.1901 100.761 71.8607 97.2159 80.6247 90.6338C89.3886 84.0515 95.768 74.7916 98.796 64.2573C98.8973 63.9019 98.8598 63.5212 98.6912 63.1922C98.5225 62.8633 98.2352 62.6108 97.8874 62.4856L95.8115 61.7133C91.8253 60.2935 87.5656 59.8119 83.3632 60.3058C79.1608 60.7999 75.1289 62.2562 71.5806 64.5617C68.328 66.6787 65.9023 68.4823 65.9023 68.4823C61.6571 71.3523 56.6487 72.8826 51.5246 72.8754C37.3196 72.8754 27.3529 61.2726 25.8038 47.1529L24.6908 39.4298C24.5232 38.2709 24.0498 37.1776 23.3192 36.2624C22.5886 35.3473 21.6272 34.6435 20.5342 34.2236L17.6497 33.115C17.531 33.0697 17.4247 32.9972 17.3389 32.9036C17.2531 32.81 17.1903 32.6977 17.1554 32.5756C17.1207 32.4535 17.1148 32.3249 17.1383 32.2002C17.1617 32.0754 17.2139 31.9578 17.2908 31.8566C29.4607 15.6017 44.3244 19.1363 44.3244 19.1363C46.7243 19.3657 49.0237 20.2142 50.9977 21.5986C53.6433 23.4552 55.7121 26.0202 56.9667 28.9991C59.2772 34.2984 63.0836 38.8082 67.9195 41.9756C72.7554 45.1431 78.4104 46.8303 84.1911 46.8304C84.1911 46.8304 95.7752 47.2801 99.6637 42.7735ZM32.1944 31.9324C33.8153 31.9324 35.1293 30.6185 35.1293 28.9976C35.1293 27.3769 33.8153 26.0629 32.1944 26.0629C30.5736 26.0629 29.2597 27.3769 29.2597 28.9976C29.2597 30.6185 30.5736 31.9324 32.1944 31.9324ZM51.9738 67.7725C35.8688 65.1013 32.2708 50.5909 31.5303 46.0206C31.5239 45.9715 31.5352 45.9216 31.5622 45.88C31.5892 45.8383 31.6302 45.8077 31.6777 45.7936C31.7251 45.7793 31.7762 45.7825 31.8216 45.8024C31.867 45.8224 31.9038 45.8578 31.9255 45.9025C38.5992 60.0131 48.3712 65.6555 52.101 67.3727C52.1446 67.3963 52.1787 67.4346 52.1973 67.4806C52.216 67.5268 52.2179 67.5778 52.2029 67.6253C52.1877 67.6726 52.1567 67.7133 52.1149 67.7401C52.0731 67.767 52.0232 67.7784 51.9738 67.7725Z" fill="url(#paint0_linear_401_1262)"/>
<defs>
<linearGradient id="paint0_linear_401_1262" x1="62.9747" y1="-21.2249" x2="129.319" y2="76.2087" gradientUnits="userSpaceOnUse">
<stop stop-color="#97559D"/>
<stop offset="1" stop-color="#591A69"/>
</linearGradient>
</defs>
</svg>
