<svg width="32" height="32" viewBox="0 0 32 32" fill="none" xmlns="http://www.w3.org/2000/svg">
<g id="brand/courier-logo">
<g id="Switch">
<g filter="url(#filter0_i_442_1087)">
<rect width="32" height="32" rx="16" fill="url(#paint0_linear_442_1087)"/>
</g>
<rect x="0.490741" y="0.490741" width="31.0185" height="31.0185" rx="15.5093" stroke="url(#paint1_linear_442_1087)" stroke-width="0.981481"/>
</g>
<path id="Logo" fill-rule="evenodd" clip-rule="evenodd" d="M27.9193 14.2656C27.9518 14.227 27.9754 14.1817 27.9884 14.1328C28.0014 14.084 28.0035 14.0329 27.9945 13.9833C27.4663 10.999 25.8367 8.32187 23.4283 6.48224C21.02 4.6426 18.0087 3.77458 14.9907 4.05009C11.9728 4.3256 9.1684 5.72455 7.13293 7.96985C5.09749 10.2152 3.97946 13.1431 4.00029 16.1737C4.04608 22.6916 9.53768 28.1585 16.0552 28.176C18.6856 28.1828 21.2466 27.3318 23.3499 25.7521C25.4533 24.1724 26.9843 21.95 27.711 19.4218C27.7353 19.3365 27.7264 19.2451 27.6859 19.1661C27.6454 19.0872 27.5764 19.0266 27.493 18.9966L26.9948 18.8112C26.0381 18.4705 25.0157 18.3549 24.0072 18.4734C22.9986 18.592 22.0309 18.9415 21.1793 19.4948C20.254 20.0971 19.383 20.816 18.3367 21.1685C17.7051 21.3812 17.0397 21.4911 16.3659 21.4901C12.9567 21.4901 10.5647 18.7054 10.1929 15.3167L9.9258 13.4632C9.88557 13.185 9.77195 12.9226 9.5966 12.703C9.42126 12.4834 9.19053 12.3145 8.92822 12.2137L8.23592 11.9476C8.20744 11.9367 8.18192 11.9193 8.16133 11.8969C8.14073 11.8744 8.12568 11.8475 8.11731 11.8182C8.10896 11.7889 8.10755 11.758 8.11318 11.7281C8.11882 11.6981 8.13134 11.6699 8.14978 11.6456C9.7834 9.46364 11.6192 8.76743 12.9201 8.57756C14.0575 8.41155 15.2984 8.52368 16.2394 9.18367C16.8744 9.62926 17.3709 10.2449 17.672 10.9598C18.2265 12.2316 19.1401 13.314 20.3007 14.0742C20.7925 14.3963 21.3196 14.6546 21.8694 14.8454C23.3685 15.3656 25.0332 15.402 26.5663 14.9923C27.1072 14.8477 27.6128 14.6208 27.9193 14.2656ZM11.7269 11.6633C12.1159 11.6633 12.4313 11.348 12.4313 10.959C12.4313 10.57 12.1159 10.2547 11.7269 10.2547C11.3379 10.2547 11.0226 10.57 11.0226 10.959C11.0226 11.348 11.3379 11.6633 11.7269 11.6633ZM16.4739 20.2648C12.6087 19.6237 11.7452 16.1412 11.5675 15.0443C11.5659 15.0325 11.5686 15.0206 11.5751 15.0106C11.5816 15.0006 11.5914 14.9932 11.6028 14.9898C11.6142 14.9864 11.6265 14.9872 11.6374 14.992C11.6483 14.9968 11.6571 15.0053 11.6623 15.016C13.264 18.4025 15.6093 19.7567 16.5044 20.1688C16.5149 20.1745 16.5231 20.1837 16.5276 20.1947C16.532 20.2058 16.5325 20.2181 16.5289 20.2295C16.5252 20.2408 16.5178 20.2506 16.5078 20.257C16.4977 20.2635 16.4858 20.2662 16.4739 20.2648Z" fill="url(#paint2_linear_442_1087)"/>
<path id="Logo_2" opacity="0.4" fill-rule="evenodd" clip-rule="evenodd" d="M27.9177 14.265C27.9502 14.2263 27.9738 14.181 27.9868 14.1322C27.9998 14.0834 28.0019 14.0323 27.9929 13.9826C27.4647 10.9985 25.8352 8.32158 23.427 6.48208C21.0189 4.64256 18.0077 3.77459 14.99 4.05009C11.9723 4.32558 9.16805 5.72443 7.13272 7.96959C5.09741 10.2148 3.97946 13.1425 4.00029 16.1729C4.04607 22.6904 9.53731 28.1569 16.0544 28.1744C18.6847 28.1812 21.2454 27.3303 23.3486 25.7507C25.4518 24.171 26.9828 21.9488 27.7095 19.4207C27.7338 19.3354 27.7248 19.2441 27.6843 19.1651C27.6438 19.0862 27.5749 19.0256 27.4914 18.9956L26.9932 18.8102C26.0366 18.4695 25.0143 18.3539 24.0058 18.4724C22.9973 18.591 22.0297 18.9405 21.1782 19.4938C20.2529 20.096 19.3819 20.8148 18.3357 21.1673C17.7042 21.3801 17.0388 21.4899 16.3651 21.489C12.9561 21.489 10.5643 18.7044 10.1925 15.3159L9.92541 13.4625C9.88518 13.1844 9.77156 12.922 9.59623 12.7024C9.42089 12.4828 9.19018 12.3139 8.92789 12.2131L8.23564 11.9471C8.20716 11.9362 8.18164 11.9188 8.16105 11.8963C8.14046 11.8739 8.12541 11.8469 8.11703 11.8176C8.10869 11.7883 8.10728 11.7575 8.11291 11.7275C8.11854 11.6976 8.13107 11.6694 8.14951 11.6451C9.78301 9.46327 11.6187 8.76712 12.9195 8.57726C14.0568 8.41125 15.2976 8.52338 16.2386 9.18332C16.8735 9.62889 17.37 10.2444 17.6711 10.9593C18.2256 12.2311 19.1391 13.3134 20.2996 14.0735C20.7913 14.3956 21.3184 14.6539 21.868 14.8446C23.3672 15.3649 25.0319 15.4013 26.5649 14.9915C27.1058 14.847 27.6113 14.6201 27.9177 14.265ZM11.7263 11.6628C12.1153 11.6628 12.4307 11.3475 12.4307 10.9585C12.4307 10.5696 12.1153 10.2542 11.7263 10.2542C11.3374 10.2542 11.0221 10.5696 11.0221 10.9585C11.0221 11.3475 11.3374 11.6628 11.7263 11.6628ZM16.4731 20.2637C12.6081 19.6226 11.7447 16.1404 11.567 15.0436C11.5654 15.0318 11.5681 15.0198 11.5746 15.0099C11.5811 14.9998 11.5909 14.9925 11.6023 14.9891C11.6137 14.9857 11.626 14.9865 11.6369 14.9912C11.6478 14.996 11.6566 15.0045 11.6618 15.0152C13.2634 18.4016 15.6085 19.7557 16.5036 20.1678C16.5141 20.1734 16.5223 20.1826 16.5267 20.1937C16.5312 20.2047 16.5316 20.217 16.528 20.2284C16.5244 20.2397 16.517 20.2495 16.5069 20.2559C16.4969 20.2624 16.4849 20.2651 16.4731 20.2637Z" fill="url(#paint3_radial_442_1087)"/>
</g>
<defs>
<filter id="filter0_i_442_1087" x="0" y="0" width="33.963" height="35.9259" filterUnits="userSpaceOnUse" color-interpolation-filters="sRGB">
<feFlood flood-opacity="0" result="BackgroundImageFix"/>
<feBlend mode="normal" in="SourceGraphic" in2="BackgroundImageFix" result="shape"/>
<feColorMatrix in="SourceAlpha" type="matrix" values="0 0 0 0 0 0 0 0 0 0 0 0 0 0 0 0 0 0 127 0" result="hardAlpha"/>
<feOffset dx="1.96296" dy="5.88889"/>
<feGaussianBlur stdDeviation="1.96296"/>
<feComposite in2="hardAlpha" operator="arithmetic" k2="-1" k3="1"/>
<feColorMatrix type="matrix" values="0 0 0 0 0 0 0 0 0 0 0 0 0 0 0 0 0 0 0.04 0"/>
<feBlend mode="normal" in2="shape" result="effect1_innerShadow_442_1087"/>
</filter>
<linearGradient id="paint0_linear_442_1087" x1="21.1064" y1="1.02128" x2="7.48936" y2="32.3404" gradientUnits="userSpaceOnUse">
<stop stop-color="#FDFBFC"/>
<stop offset="1" stop-color="#F0F0F0"/>
</linearGradient>
<linearGradient id="paint1_linear_442_1087" x1="16" y1="-11.234" x2="16" y2="32" gradientUnits="userSpaceOnUse">
<stop stop-color="white"/>
<stop offset="1" stop-color="#F7F7F7"/>
</linearGradient>
<linearGradient id="paint2_linear_442_1087" x1="16.9079" y1="4.33968" x2="14.3324" y2="28.2529" gradientUnits="userSpaceOnUse">
<stop stop-color="#FD505B"/>
<stop offset="0.997623" stop-color="#A424D5"/>
</linearGradient>
<radialGradient id="paint3_radial_442_1087" cx="0" cy="0" r="1" gradientUnits="userSpaceOnUse" gradientTransform="translate(22.3416 4) rotate(101.634) scale(11.7906 11.7048)">
<stop offset="0.149434" stop-color="#FFBECB"/>
<stop offset="1" stop-color="#FFA3B5" stop-opacity="0"/>
</radialGradient>
</defs>
</svg>
