<svg xmlns="http://www.w3.org/2000/svg" viewBox="0 0 372 83.81"><defs><style>.cls-1{fill:#9121c2}</style></defs><g id="Layer_2" data-name="Layer 2"><g id="Layer_1-2" data-name="Layer 1"><path class="cls-1" d="M78.75 38a1.11 1.11 0 00.24-.93A39.8 39.8 0 000 44.3c.15 21.46 18.23 39.45 39.69 39.51A39.82 39.82 0 0078.06 55a1.15 1.15 0 00-.71-1.4l-1.64-.6a21.72 21.72 0 00-19.14 2.25c-2.57 1.68-4.49 3.1-4.49 3.1a20.22 20.22 0 01-11.36 3.45c-11.22 0-19.1-9.17-20.32-20.32l-.88-6.11a5.22 5.22 0 00-3.28-4.12L14 30.38a.65.65 0 01-.28-1C23.29 16.54 35 19.32 35 19.32a11 11 0 015.27 1.95A13.59 13.59 0 0145 27.12a23.47 23.47 0 0021.53 14.09s9.14.37 12.22-3.21z"/><circle class="cls-1" cx="24.42" cy="26.12" r="2.32"/><path class="cls-1" d="M24.91 40.59c.59 3.6 3.43 15.06 16.16 17.18a.16.16 0 00.1-.31c-3-1.36-10.67-5.82-15.94-17a.17.17 0 00-.32.13zM140.55 54.68c0 16.19-12.31 28.28-28.4 28.28S83.87 70.87 83.87 54.68c0-16.42 12.2-28.62 28.28-28.62s28.4 12.2 28.4 28.62zm-39.27 0c0 6.43 4.66 11.2 10.87 11.2s11-4.77 11-11.2c0-6.66-4.65-11.54-11-11.54S101.28 48 101.28 54.68zM199.1 56.45C199.1 72 188.23 83 172.93 83s-26.4-11-26.4-26.51V27.17h17.75v29.28c0 5.77 3.33 9.43 8.65 9.43 5.1 0 8.54-3.66 8.54-9.43V27.17h17.63zM242.91 26.73v16.19a35.82 35.82 0 00-5.66-.66c-7.43 0-13.42 3.88-13.42 14.3v25.29h-17.74V27.17h17.74v5.77a16.5 16.5 0 0113.87-6.77 30.07 30.07 0 015.21.56zM269.19 10.54a10.59 10.59 0 11-21.18 0 10.59 10.59 0 0121.18 0zm-1.77 16.63v54.68h-17.75V27.17zM328.69 59.11h-39c1.33 5.66 6 9.21 12.09 9.21 5.32 0 8.32-2.22 9.09-5.21h17.42C326.58 75.2 316.27 83 302.3 83a28.38 28.38 0 01-28.84-28.62c0-16 12.42-28.28 28.5-28.28a26.91 26.91 0 0127.17 26.73c0 1.4-.22 4.29-.44 6.28zm-18.19-11.2c-.44-4.43-4.66-7.43-9.42-7.43s-8.77 2.22-10.65 7.43zM372 26.73v16.19a35.7 35.7 0 00-5.65-.66c-7.44 0-13.42 3.88-13.42 14.3v25.29h-17.75V27.17h17.75v5.77a16.46 16.46 0 0113.86-6.77 30.07 30.07 0 015.21.56z"/></g></g></svg>