<svg
    width="31"
    height="13"
    viewBox="0 0 31 13"
    fill="none"
    xmlns="http://www.w3.org/2000/svg"
  >
  <path
      d="M12.5 12.4986H10.655C9.1966 12.4971 7.78591 11.9913 6.67395 11.0713C5.56199 10.1513 4.8208 8.87678 4.58203 7.47419H0.5V5.52447H4.58105C4.82002 4.12196 5.56129 2.84746 6.67322 1.92752C7.78514 1.00758 9.19567 0.501774 10.6541 0.5H12.5V2.51018H15.5C15.7652 2.51018 16.0196 2.61287 16.2072 2.79569C16.3947 2.97852 16.5 3.22649 16.5 3.48504C16.5 3.74359 16.3947 3.99154 16.2072 4.17436C16.0196 4.35718 15.7652 4.45991 15.5 4.45991H12.5V8.53971H15.5C15.7652 8.53971 16.0196 8.64243 16.2072 8.82525C16.3947 9.00807 16.5 9.25602 16.5 9.51457C16.5 9.77312 16.3947 10.0211 16.2072 10.2039C16.0196 10.3867 15.7652 10.4894 15.5 10.4894H12.5V12.4986Z"
      fill="#2E3C57"
    />
  <g opacity="0.5">
    <path
        d="M20.5 10.5475C21.434 10.5135 22.3326 10.1712 23.0457 9.57496C23.7911 8.95148 24.2882 8.09344 24.4454 7.15892L24.5563 6.50007L24.4452 5.84089C24.2877 4.90678 23.7905 4.04905 23.045 3.42577C22.3323 2.82972 21.4337 2.4875 20.5 2.4535V10.5475ZM20.3459 12.5H18.5V0.501839V0.500977H18.501H20.3459C23.3983 0.500977 25.9392 2.67931 26.4187 5.52485H30.4998V7.47437H26.4191C25.9403 10.3212 23.3989 12.5 20.3459 12.5Z"
        fill="#2E3C57"
      />
  </g>
</svg>
