<svg width="16" height="16" viewBox="0 0 16 16" fill="none" xmlns="http://www.w3.org/2000/svg">
<path opacity="0.7" d="M0 5.94275V7.99989C0 9.94275 3.49091 11.4285 8 11.4285C12.5091 11.4285 16 9.94275 16 7.99989V5.94275C14.4 7.19989 11.4909 7.99989 8 7.99989C4.50909 7.99989 1.6 7.19989 0 5.94275Z" fill="url(#paint0_linear_308_1554)"/>
<path d="M0 10.5143V12.5714C0 14.5143 3.49091 16 8 16C12.5091 16 16 14.5143 16 12.5714V10.5143C14.4 11.7714 11.4909 12.5714 8 12.5714C4.50909 12.5714 1.6 11.7714 0 10.5143Z" fill="url(#paint1_linear_308_1554)"/>
<path opacity="0.4" d="M8 6.85714C12.4183 6.85714 16 5.32212 16 3.42857C16 1.53502 12.4183 0 8 0C3.58172 0 0 1.53502 0 3.42857C0 5.32212 3.58172 6.85714 8 6.85714Z" fill="url(#paint2_linear_308_1554)"/>
<defs>
<linearGradient id="paint0_linear_308_1554" x1="16" y1="5.94275" x2="14.3204" y2="12.7752" gradientUnits="userSpaceOnUse">
<stop stop-color="#9121C2"/>
<stop offset="1" stop-color="#BB399C"/>
</linearGradient>
<linearGradient id="paint1_linear_308_1554" x1="16" y1="10.5143" x2="14.3204" y2="17.3467" gradientUnits="userSpaceOnUse">
<stop stop-color="#9121C2"/>
<stop offset="1" stop-color="#BB399C"/>
</linearGradient>
<linearGradient id="paint2_linear_308_1554" x1="16" y1="-1.93519e-07" x2="13.4572" y2="8.27526" gradientUnits="userSpaceOnUse">
<stop stop-color="#9121C2"/>
<stop offset="1" stop-color="#BB399C"/>
</linearGradient>
</defs>
</svg>
