<svg width="16" height="16" viewBox="0 0 16 16" fill="none" xmlns="http://www.w3.org/2000/svg">
<path d="M0 5.94275V7.99989C0 9.94275 3.49091 11.4285 8 11.4285C12.5091 11.4285 16 9.94275 16 7.99989V5.94275C14.4 7.19989 11.4909 7.99989 8 7.99989C4.50909 7.99989 1.6 7.19989 0 5.94275Z" fill="#ABA5B2"/>
<path d="M0 10.5143V12.5714C0 14.5143 3.49091 16 8 16C12.5091 16 16 14.5143 16 12.5714V10.5143C14.4 11.7714 11.4909 12.5714 8 12.5714C4.50909 12.5714 1.6 11.7714 0 10.5143Z" fill="#92899C"/>
<path d="M8 6.85714C12.4183 6.85714 16 5.32212 16 3.42857C16 1.53502 12.4183 0 8 0C3.58172 0 0 1.53502 0 3.42857C0 5.32212 3.58172 6.85714 8 6.85714Z" fill="#D0C9D6"/>
</svg>
